<svg width="8" height="19" viewBox="0 0 8 19" fill="none" xmlns="http://www.w3.org/2000/svg">
<path d="M7.82192 0.223587C7.93609 0.36976 8 0.565985 8 0.770317C8 0.974649 7.93609 1.17087 7.82192 1.31705L1.44365 9.5L7.82192 17.6813C7.93609 17.8275 8 18.0237 8 18.228C8 18.4324 7.93609 18.6286 7.82192 18.7748C7.76643 18.8461 7.70008 18.9027 7.62679 18.9414C7.55351 18.9801 7.47477 19 7.39522 19C7.31567 19 7.23693 18.9801 7.16364 18.9414C7.09036 18.9027 7.02401 18.8461 6.96852 18.7748L0.1858 10.0713C0.0666723 9.91844 0 9.71344 0 9.5C0 9.28656 0.0666723 9.08156 0.1858 8.92872L6.96852 0.225224C7.02401 0.153947 7.09036 0.0972948 7.16364 0.0586122C7.23693 0.0199295 7.31567 0 7.39522 0C7.47477 0 7.55351 0.0199295 7.62679 0.0586122C7.70008 0.0972948 7.76643 0.153947 7.82192 0.225224V0.223587Z" fill="#F8F8F8"/>
</svg>
