<svg width="8" height="19" viewBox="0 0 8 19" fill="none" xmlns="http://www.w3.org/2000/svg">
<path d="M0.17808 0.223587C0.0639145 0.36976 0 0.565985 0 0.770317C0 0.974649 0.0639145 1.17087 0.17808 1.31705L6.55635 9.5L0.17808 17.6813C0.0639145 17.8275 0 18.0237 0 18.228C0 18.4324 0.0639145 18.6286 0.17808 18.7748C0.233572 18.8461 0.29992 18.9027 0.373207 18.9414C0.446493 18.9801 0.525234 19 0.604781 19C0.684328 19 0.763069 18.9801 0.836356 18.9414C0.909642 18.9027 0.97599 18.8461 1.03148 18.7748L7.8142 10.0713C7.93333 9.91844 8 9.71344 8 9.5C8 9.28656 7.93333 9.08156 7.8142 8.92872L1.03148 0.225224C0.97599 0.153947 0.909642 0.0972948 0.836356 0.0586122C0.763069 0.0199295 0.684328 0 0.604781 0C0.525234 0 0.446493 0.0199295 0.373207 0.0586122C0.29992 0.0972948 0.233572 0.153947 0.17808 0.225224V0.223587Z" fill="#F8F8F8"/>
</svg>
