<svg width="68" height="40" viewBox="0 0 68 40" fill="none" xmlns="http://www.w3.org/2000/svg">
<path d="M26.6666 30C27.5507 30 28.3985 30.3512 29.0236 30.9763C29.6488 31.6014 30 32.4493 30 33.3333C30 34.2174 29.6488 35.0652 29.0236 35.6904C28.3985 36.3155 27.5507 36.6667 26.6666 36.6667C25.7826 36.6667 24.9347 36.3155 24.3096 35.6904C23.6845 35.0652 23.3333 34.2174 23.3333 33.3333C23.3333 32.4493 23.6845 31.6014 24.3096 30.9763C24.9347 30.3512 25.7826 30 26.6666 30ZM26.6666 31.6667C26.2246 31.6667 25.8007 31.8423 25.4881 32.1548C25.1756 32.4674 25 32.8913 25 33.3333C25 33.7754 25.1756 34.1993 25.4881 34.5118C25.8007 34.8244 26.2246 35 26.6666 35C27.1087 35 27.5326 34.8244 27.8451 34.5118C28.1577 34.1993 28.3333 33.7754 28.3333 33.3333C28.3333 32.8913 28.1577 32.4674 27.8451 32.1548C27.5326 31.8423 27.1087 31.6667 26.6666 31.6667ZM11.6666 30C12.5507 30 13.3985 30.3512 14.0236 30.9763C14.6488 31.6014 15 32.4493 15 33.3333C15 34.2174 14.6488 35.0652 14.0236 35.6904C13.3985 36.3155 12.5507 36.6667 11.6666 36.6667C10.7826 36.6667 9.93472 36.3155 9.3096 35.6904C8.68448 35.0652 8.33329 34.2174 8.33329 33.3333C8.33329 32.4493 8.68448 31.6014 9.3096 30.9763C9.93472 30.3512 10.7826 30 11.6666 30ZM11.6666 31.6667C11.2246 31.6667 10.8007 31.8423 10.4881 32.1548C10.1756 32.4674 9.99996 32.8913 9.99996 33.3333C9.99996 33.7754 10.1756 34.1993 10.4881 34.5118C10.8007 34.8244 11.2246 35 11.6666 35C12.1087 35 12.5326 34.8244 12.8451 34.5118C13.1577 34.1993 13.3333 33.7754 13.3333 33.3333C13.3333 32.8913 13.1577 32.4674 12.8451 32.1548C12.5326 31.8423 12.1087 31.6667 11.6666 31.6667ZM30 10H7.12163L11.3666 20H25C25.2591 20.0004 25.5148 19.94 25.7463 19.8236C25.9779 19.7073 26.1789 19.5382 26.3333 19.33L31.3333 12.6633H31.335C31.5198 12.4156 31.6321 12.1213 31.6593 11.8134C31.6865 11.5055 31.6276 11.1961 31.4891 10.9198C31.3506 10.6435 31.138 10.4111 30.875 10.2487C30.612 10.0863 30.3091 10.0002 30 10ZM25 21.6667H11.4433L10.1666 24.2667L9.99996 25C9.99996 25.442 10.1756 25.8659 10.4881 26.1785C10.8007 26.4911 11.2246 26.6667 11.6666 26.6667H30V28.3333H11.6666C11.0862 28.3336 10.5158 28.1824 10.0118 27.8945C9.50787 27.6067 9.08777 27.1922 8.79314 26.6922C8.4985 26.1921 8.33953 25.6238 8.33196 25.0435C8.32438 24.4632 8.46847 23.8909 8.74996 23.3833L9.94996 20.9267L3.89663 6.66667H1.66663V5H4.99996L6.41496 8.33333H30C30.6297 8.33339 31.2466 8.51187 31.7792 8.84809C32.3117 9.18431 32.7381 9.66452 33.009 10.2331C33.2798 10.8017 33.3841 11.4353 33.3096 12.0607C33.2352 12.6861 32.9851 13.2776 32.5883 13.7667L27.7316 20.2433C27.4246 20.683 27.0159 21.042 26.5403 21.2898C26.0647 21.5376 25.5362 21.6669 25 21.6667Z" fill="#6E6A6A"/>
<g filter="url(#filter0_d_159_379)">
<circle cx="35" cy="8" r="8" fill="#D9D9D9"/>
</g>
<path d="M32.9609 12V11.2793H34.9648V4.31836L32.9609 5.16211V4.44141L34.9648 3.59766H35.7207V11.2793H37.7246V12H32.9609Z" fill="#0D0D0B"/>
<defs>
<filter id="filter0_d_159_379" x="23" y="0" width="24" height="24" filterUnits="userSpaceOnUse" color-interpolation-filters="sRGB">
<feFlood flood-opacity="0" result="BackgroundImageFix"/>
<feColorMatrix in="SourceAlpha" type="matrix" values="0 0 0 0 0 0 0 0 0 0 0 0 0 0 0 0 0 0 127 0" result="hardAlpha"/>
<feOffset dy="4"/>
<feGaussianBlur stdDeviation="2"/>
<feComposite in2="hardAlpha" operator="out"/>
<feColorMatrix type="matrix" values="0 0 0 0 0 0 0 0 0 0 0 0 0 0 0 0 0 0 0.25 0"/>
<feBlend mode="normal" in2="BackgroundImageFix" result="effect1_dropShadow_159_379"/>
<feBlend mode="normal" in="SourceGraphic" in2="effect1_dropShadow_159_379" result="shape"/>
</filter>
</defs>
</svg>
