<svg width="6" height="17" viewBox="0 0 6 17" fill="none" xmlns="http://www.w3.org/2000/svg">
<path d="M0.13356 0.192732C0.0479359 0.318734 0 0.487881 0 0.664016C0 0.84015 0.0479359 1.0093 0.13356 1.1353L4.91726 8.18902L0.13356 15.2413C0.0479359 15.3673 0 15.5365 0 15.7126C0 15.8888 0.0479359 16.0579 0.13356 16.1839C0.175179 16.2453 0.22494 16.2942 0.279905 16.3275C0.33487 16.3609 0.393925 16.378 0.453586 16.378C0.513246 16.378 0.572302 16.3609 0.627267 16.3275C0.682232 16.2942 0.731993 16.2453 0.773612 16.1839L5.86065 8.68147C5.95 8.54972 6 8.37301 6 8.18902C6 8.00504 5.95 7.82833 5.86065 7.69658L0.773612 0.194143C0.731993 0.132702 0.682232 0.0838684 0.627267 0.0505238C0.572302 0.0171793 0.513246 0 0.453586 0C0.393925 0 0.33487 0.0171793 0.279905 0.0505238C0.22494 0.0838684 0.175179 0.132702 0.13356 0.194143V0.192732Z" fill="#F8F8F8"/>
</svg>
