<svg width="107" height="19" viewBox="0 0 107 19" fill="none" xmlns="http://www.w3.org/2000/svg">
<path d="M41.2089 6.67501L35.2581 5.81017L32.5979 0.417196C32.5253 0.26954 32.4057 0.150009 32.2581 0.0773524C31.8878 -0.10546 31.4378 0.0468837 31.2526 0.417196L28.5925 5.81017L22.6417 6.67501C22.4776 6.69845 22.3276 6.77579 22.2128 6.89298C22.0739 7.03568 21.9974 7.22767 22.0001 7.42675C22.0027 7.62583 22.0843 7.81572 22.2268 7.9547L26.5323 12.1524L25.5151 18.0797C25.4913 18.2176 25.5065 18.3594 25.5592 18.489C25.6118 18.6187 25.6997 18.731 25.8129 18.8132C25.9262 18.8955 26.0602 18.9443 26.1997 18.9543C26.3393 18.9642 26.4789 18.9349 26.6026 18.8695L31.9253 16.0711L37.2479 18.8695C37.3932 18.9469 37.562 18.9727 37.7237 18.9445C38.1315 18.8742 38.4057 18.4875 38.3354 18.0797L37.3182 12.1524L41.6237 7.9547C41.7409 7.83985 41.8182 7.68985 41.8417 7.52579C41.905 7.11563 41.619 6.73595 41.2089 6.67501Z" fill="#F8F8F8"/>
<path d="M19.2089 6.67501L13.2581 5.81017L10.5979 0.417196C10.5253 0.26954 10.4057 0.150009 10.2581 0.0773524C9.88778 -0.10546 9.43778 0.0468837 9.25262 0.417196L6.59246 5.81017L0.641682 6.67501C0.47762 6.69845 0.32762 6.77579 0.212776 6.89298C0.0739361 7.03568 -0.00257088 7.22767 6.5967e-05 7.42675C0.00270281 7.62583 0.0842678 7.81572 0.226838 7.9547L4.53231 12.1524L3.51512 18.0797C3.49127 18.2176 3.50652 18.3594 3.55916 18.489C3.6118 18.6187 3.69972 18.731 3.81294 18.8132C3.92616 18.8955 4.06015 18.9443 4.19973 18.9543C4.3393 18.9642 4.47888 18.9349 4.60262 18.8695L9.92528 16.0711L15.2479 18.8695C15.3932 18.9469 15.562 18.9727 15.7237 18.9445C16.1315 18.8742 16.4057 18.4875 16.3354 18.0797L15.3182 12.1524L19.6237 7.9547C19.7409 7.83985 19.8182 7.68985 19.8417 7.52579C19.905 7.11563 19.619 6.73595 19.2089 6.67501Z" fill="#F8F8F8"/>
<path d="M106.209 6.67501L100.258 5.81017L97.5979 0.417196C97.5253 0.26954 97.4057 0.150009 97.2581 0.0773524C96.8878 -0.10546 96.4378 0.0468837 96.2526 0.417196L93.5925 5.81017L87.6417 6.67501C87.4776 6.69845 87.3276 6.77579 87.2128 6.89298C87.0739 7.03568 86.9974 7.22767 87.0001 7.42675C87.0027 7.62583 87.0843 7.81572 87.2268 7.9547L91.5323 12.1524L90.5151 18.0797C90.4913 18.2176 90.5065 18.3594 90.5592 18.489C90.6118 18.6187 90.6997 18.731 90.8129 18.8132C90.9262 18.8955 91.0602 18.9443 91.1997 18.9543C91.3393 18.9642 91.4789 18.9349 91.6026 18.8695L96.9253 16.0711L102.248 18.8695C102.393 18.9469 102.562 18.9727 102.724 18.9445C103.132 18.8742 103.406 18.4875 103.335 18.0797L102.318 12.1524L106.624 7.9547C106.741 7.83985 106.818 7.68985 106.842 7.52579C106.905 7.11563 106.619 6.73595 106.209 6.67501Z" fill="#F8F8F8"/>
<path d="M62.4085 6.67501L56.7057 5.81017L54.1564 0.417196C54.0867 0.26954 53.9722 0.150009 53.8307 0.0773524C53.4758 -0.10546 53.0445 0.0468837 52.8671 0.417196L50.3178 5.81017L44.6149 6.67501C44.4577 6.69845 44.314 6.77579 44.2039 6.89298C44.0709 7.03568 43.9975 7.22767 44.0001 7.42675C44.0026 7.62583 44.0808 7.81572 44.2174 7.9547L48.3435 12.1524L47.3687 18.0797C47.3458 18.2176 47.3604 18.3594 47.4109 18.489C47.4613 18.6187 47.5456 18.731 47.6541 18.8132C47.7626 18.8955 47.891 18.9443 48.0247 18.9543C48.1585 18.9642 48.2923 18.9349 48.4108 18.8695L53.5117 16.0711L58.6126 18.8695C58.7519 18.9469 58.9136 18.9727 59.0686 18.9445C59.4594 18.8742 59.7222 18.4875 59.6548 18.0797L58.68 12.1524L62.8061 7.9547C62.9184 7.83985 62.9925 7.68985 63.0149 7.52579C63.0756 7.11563 62.8016 6.73595 62.4085 6.67501Z" fill="#F8F8F8"/>
<path d="M84.2089 6.67501L78.2581 5.81017L75.5979 0.417196C75.5253 0.26954 75.4057 0.150009 75.2581 0.0773524C74.8878 -0.10546 74.4378 0.0468837 74.2526 0.417196L71.5925 5.81017L65.6417 6.67501C65.4776 6.69845 65.3276 6.77579 65.2128 6.89298C65.0739 7.03568 64.9974 7.22767 65.0001 7.42675C65.0027 7.62583 65.0843 7.81572 65.2268 7.9547L69.5323 12.1524L68.5151 18.0797C68.4913 18.2176 68.5065 18.3594 68.5592 18.489C68.6118 18.6187 68.6997 18.731 68.8129 18.8132C68.9262 18.8955 69.0602 18.9443 69.1997 18.9543C69.3393 18.9642 69.4789 18.9349 69.6026 18.8695L74.9253 16.0711L80.2479 18.8695C80.3932 18.9469 80.562 18.9727 80.7237 18.9445C81.1315 18.8742 81.4057 18.4875 81.3354 18.0797L80.3182 12.1524L84.6237 7.9547C84.7409 7.83985 84.8182 7.68985 84.8417 7.52579C84.905 7.11563 84.619 6.73595 84.2089 6.67501Z" fill="#F8F8F8"/>
</svg>
