<svg width="32" height="32" viewBox="0 0 32 32" fill="none" xmlns="http://www.w3.org/2000/svg">
<g clip-path="url(#clip0_159_376)">
<path d="M13.312 26.624C5.9392 26.624 0 20.6848 0 13.312C0 5.9392 5.9392 0 13.312 0C20.6848 0 26.624 5.9392 26.624 13.312C26.624 20.6848 20.6848 26.624 13.312 26.624ZM13.312 2.048C7.0656 2.048 2.048 7.0656 2.048 13.312C2.048 19.5584 7.0656 24.576 13.312 24.576C19.5584 24.576 24.576 19.5584 24.576 13.312C24.576 7.0656 19.5584 2.048 13.312 2.048Z" fill="#6F6A6A"/>
<path d="M23.2264 21.7774L32.4219 30.973L30.974 32.4209L21.7784 23.2254L23.2264 21.7774Z" fill="#6F6A6A"/>
</g>
<defs>
<clipPath id="clip0_159_376">
<rect width="32" height="32" fill="white"/>
</clipPath>
</defs>
</svg>
