<svg width="41" height="46" viewBox="0 0 41 46" fill="none" xmlns="http://www.w3.org/2000/svg">
<path d="M20.4999 10.579L18.6625 8.70936C14.3499 4.32076 6.44198 5.83521 3.58735 11.3527C2.24717 13.9478 1.94479 17.6946 4.39198 22.4764C6.74948 27.0806 11.6541 32.5955 20.4999 38.6026C29.3456 32.5955 34.2477 27.0806 36.6077 22.4764C39.0549 17.692 38.7551 13.9478 37.4124 11.3527C34.5577 5.83521 26.6499 4.31822 22.3372 8.70682L20.4999 10.579ZM20.4999 41.6594C-18.791 15.9569 8.40229 -4.10384 20.0489 6.50745C20.2026 6.64697 20.3538 6.79157 20.4999 6.94124C20.6444 6.7917 20.7949 6.64784 20.9509 6.50999C32.5949 -4.10891 59.7907 15.9544 20.4999 41.6594Z" fill="#F8F8F8"/>
</svg>
